<svg width="32" height="32" viewBox="0 0 32 32" fill="none" xmlns="http://www.w3.org/2000/svg">
<path d="M26.5773 17.388C26.3255 19.3079 25.5559 21.1231 24.3509 22.6389C23.1459 24.1546 21.551 25.3138 19.7373 25.992C17.9235 26.6702 15.9594 26.842 14.0555 26.4887C12.1516 26.1355 10.3798 25.2707 8.93005 23.9871C7.4803 22.7034 6.40733 21.0493 5.82621 19.2022C5.24509 17.3551 5.17774 15.3846 5.63139 13.5021C6.08503 11.6196 7.04256 9.89611 8.40128 8.51645C9.76 7.1368 11.4686 6.15303 13.344 5.67065C18.5426 4.33731 23.924 7.01331 25.9106 12" stroke="white" stroke-width="2" stroke-linecap="round" stroke-linejoin="round"/>
<path d="M26.6667 5.33325V11.9999H20" stroke="white" stroke-width="2" stroke-linecap="round" stroke-linejoin="round"/>
</svg>
