<svg width="351" height="68" viewBox="0 0 351 68" fill="none" xmlns="http://www.w3.org/2000/svg">
<path d="M175.5 0.999878C223.919 0.999878 267.728 4.80295 299.407 10.9403C315.255 14.0106 328.017 17.6553 336.792 21.6747C341.183 23.6858 344.521 25.7664 346.747 27.8739C348.973 29.9813 350 32.0284 350 33.9999C350 35.9713 348.973 38.0184 346.747 40.1259C344.521 42.2334 341.183 44.314 336.792 46.3251C328.017 50.3445 315.255 53.9892 299.407 57.0594C267.728 63.1968 223.919 66.9999 175.5 66.9999C127.081 66.9999 83.2724 63.1968 51.5928 57.0594C35.7448 53.9892 22.9834 50.3445 14.208 46.3251C9.81733 44.314 6.479 42.2334 4.25293 40.1259C2.02699 38.0184 1 35.9713 1 33.9999C1 32.0284 2.02699 29.9813 4.25293 27.8739C6.479 25.7664 9.81733 23.6858 14.208 21.6747C22.9834 17.6553 35.7448 14.0106 51.5928 10.9403C83.2724 4.80295 127.081 0.999878 175.5 0.999878Z" stroke="url(#paint0_linear_8103_1642)" stroke-width="2"/>
<defs>
<linearGradient id="paint0_linear_8103_1642" x1="175.5" y1="27.1999" x2="175.5" y2="67.9999" gradientUnits="userSpaceOnUse">
<stop stop-opacity="0"/>
<stop offset="1" stop-color="#2363F6"/>
</linearGradient>
</defs>
</svg>
